<svg xmlns="http://www.w3.org/2000/svg" height="228.68185" viewBox="0 0 13289.7334 5935.7828" width="512">

<desc>Translations are included for Chinese, English, Japanese, Polish, Portuguese, Russian, Spanish, Ukrainian, French. Other languages can easily be added.</desc>

   <g transform="translate(-3845.9164 -11910.1085)">
      <path d="m4684 13871h501v1007h-501z" fill="#fff" stroke="#000" stroke-linejoin="round" stroke-width="26"/>
      <path d="m4684 14878h501v2516h-501z" fill="#fff" stroke="#000" stroke-linejoin="round" stroke-width="26"/>
      <g stroke="#000" stroke-linejoin="round" stroke-width="26">
         <path d="m5437 14250l-26 3-23 5-21 13-20 15-16 18-10 21-8 25-2 24 2 25 8 24 10 23 16 18 20 15 21 10 23 8 26 3 0 0 25-3 23-8 21-10 18-15 15-18 13-23 8-24 2-25-2-24-8-25-13-21-15-18-18-15-21-13-23-5z" fill="#fff"/>
         <path d="m5311 14374h251"/>
         <path d="m5437 14250v250"/>
      </g>
      <g font-family="DejaVu Sans" font-size="425" font-weight="400">
         <text>
            <tspan x="4828" y="14502">0</tspan>
         </text>
         <text>
            <tspan x="4828" y="16264">0</tspan>
         </text>
      </g>
      <path d="m5185 14374h542" fill="none" stroke="#000" stroke-linejoin="round" stroke-width="26"/>
      <path d="m5709 14451l228-77-228-75z"/>
      <path d="m5185 16135h542" fill="none" stroke="#000" stroke-linejoin="round" stroke-width="26"/>
      <path d="m5709 16212l228-77-228-75z"/>
      <path d="m5437 13369v670" fill="none" stroke="#000" stroke-linejoin="round" stroke-width="26"/>
      <path d="m5359 14018l78 232 77-232z"/>
      <path d="m6438 14374h291" fill="none" stroke="#000" stroke-linejoin="round" stroke-width="26"/>
      <path d="m6711 14451l228-77-228-75z"/>
      <path d="m6438 16135h291" fill="none" stroke="#000" stroke-linejoin="round" stroke-width="26"/>
      <path d="m6711 16212l228-77-228-75z"/>
      <path d="m6939 13871h501v1007h-501z" fill="#fff" stroke="#000" stroke-linejoin="round" stroke-width="26"/>
      <path d="m7440 14878v2516h-501v-2516z" fill="#fff" stroke="#000" stroke-linejoin="round" stroke-width="26"/>
      <g stroke="#000" stroke-linejoin="round" stroke-width="26">
         <path d="m7692 14250l-26 3-23 5-20 13-21 15-15 18-11 21-7 25-3 24 3 25 7 24 11 23 15 18 21 15 20 10 23 8 26 3 0 0 26-3 23-8 20-10 18-15 16-18 12-23 8-24 3-25-3-24-8-25-12-21-16-18-18-15-20-13-23-5z" fill="#fff"/>
         <path d="m7566 14374h252"/>
         <path d="m7692 14250v250"/>
      </g>
      <path d="m7440 14374h542" fill="none" stroke="#000" stroke-linejoin="round" stroke-width="26"/>
      <path d="m7964 14451l229-77-229-75z"/>
      <path d="m7440 16135h542" fill="none" stroke="#000" stroke-linejoin="round" stroke-width="26"/>
      <path d="m7964 16212l229-77-229-75z"/>
      <path d="m7692 13369v670" fill="none" stroke="#000" stroke-linejoin="round" stroke-width="26"/>
      <path d="m7615 14018l77 232 77-232z"/>
      <text font-family="DejaVu Sans" font-size="497" font-weight="400">
         <tspan x="5383" y="13140">P</tspan>
      </text>
      <text font-family="DejaVu Sans" font-size="332" font-weight="400">
         <tspan x="5632" y="13210">0</tspan>
      </text>
      <text font-family="DejaVu Sans" font-size="497" font-weight="400">
         <tspan x="7638" y="13140">P</tspan>
      </text>
      <text font-family="DejaVu Sans" font-size="332" font-weight="400">
         <tspan x="7887" y="13210">1</tspan>
      </text>
      <path d="m10949 14374h794" fill="none" stroke="#000" stroke-linejoin="round" stroke-width="26"/>
      <path d="m11722 14451l229-77-229-75z"/>
      <path d="m10949 16138h794" fill="none" stroke="#000" stroke-linejoin="round" stroke-width="26"/>
      <path d="m11722 16212l229-74-229-78z"/>
      <path d="m12454 14374h542" fill="none" stroke="#000" stroke-linejoin="round" stroke-width="26"/>
      <path d="m12976 14451l228-77-228-75z"/>
      <path d="m12454 16138h542" fill="none" stroke="#000" stroke-linejoin="round" stroke-width="26"/>
      <path d="m12976 16212l228-74-228-78z"/>
      <path d="m12703 14374v-793" fill="none" stroke="#000" stroke-linejoin="round" stroke-width="26"/>
      <path d="m12781 13599l-78-230-77 230z"/>
      <path d="m13705 14374h293" fill="none" stroke="#000" stroke-linejoin="round" stroke-width="26"/>
      <path d="m13978 14451l231-77-231-75z"/>
      <path d="m13705 16138h293" fill="none" stroke="#000" stroke-linejoin="round" stroke-width="26"/>
      <path d="m13978 16212l231-74-231-78z"/>
      <text font-family="DejaVu Sans" font-size="497" font-weight="400">
         <tspan x="12668" y="13140">Z</tspan>
      </text>
      <text font-family="DejaVu Sans" font-size="332" font-weight="400">
         <tspan x="12979" y="13210">0</tspan>
      </text>
      <path d="m11463 12110v178l-3 10-10 3-8-3-5-10v-178l5-8 8-5 10 5zm0 307v177l-3 11-10 2-8-2-5-11v-177l5-8 8-5 10 5zm0 306v178l-3 10-10 3-8-3-5-10v-178l5-10 8-3 10 3zm0 306v178l-3 10-10 3-8-3-5-10v-178l5-10 8-2 10 2zm0 307v178l-3 10-10 2-8-2-5-10v-178l5-10 8-3 10 3zm0 306v178l-3 10-10 3-8-3-5-10v-178l5-10 8-3 10 3zm0 307v177l-3 11-10 2-8-2-5-11v-177l5-11 8-2 10 2zm0 306v178l-3 10-10 3-8-3-5-10v-178l5-10 8-3 10 3zm0 307v177l-3 11-10 2-8-2-5-11v-177l5-11 8-2 10 2zm0 306v178l-3 10-10 3-8-3-5-10v-178l5-10 8-3 10 3zm0 304v180l-3 8-10 5-8-5-5-8v-180l5-8 8-2 10 2zm0 306v181l-3 7-10 5-8-5-5-7v-181l5-7 8-6 10 6zm0 307v180l-3 8-10 5-8-5-5-8v-180l5-8 8-5 10 5zm0 306v180l-3 8-10 5-8-5-5-8v-180l5-8 8-5 10 5zm0 307v180l-3 8-10 5-8-5-5-8v-180l5-8 8-5 10 5zm0 306v180l-3 8-10 5-8-5-5-8v-180l5-8 8-5 10 5zm0 306v181l-3 7-10 6-8-6-5-7v-181l5-7 8-5 10 5zm0 307v178l-3 10-10 2-8-2-5-10v-178l5-8 8-5 10 5zm0 306v23l-3 8-10 5-8-5-5-8v-23l5-7 8-6 10 6z" stroke="#000"/>
      <path d="m14959 14376v-795" fill="none" stroke="#000" stroke-linejoin="round" stroke-width="26"/>
      <path d="m15036 13599l-77-230-75 230z"/>
      <text font-family="DejaVu Sans" font-size="497" font-weight="400">
         <tspan x="14923" y="13140">Z</tspan>
      </text>
      <text font-family="DejaVu Sans" font-size="332" font-weight="400">
         <tspan x="15204" y="13210">1</tspan>
      </text>
      <g font-family="DejaVu Sans" font-size="425" font-weight="400">
         <g transform="translate(11278,12489)" text-anchor="end">
            <switch>
               <text systemLanguage="en">absorbing</text>
               <text systemLanguage="fr">absorption</text>
               <text systemLanguage="es">absorción</text>
               <text systemLanguage="ja">吸収</text>
               <text systemLanguage="pl">wchłanianie</text>
               <text systemLanguage="pt">absorção</text>
               <text systemLanguage="ru">впитывание</text>
               <text systemLanguage="uk">всмоктування</text>
               <text systemLanguage="zh">吸收</text>
               <text>absorbing</text>
            </switch>
         </g>
         <g transform="translate(11591,12489)" text-anchor="start">
            <switch>
               <text systemLanguage="en">squeezing</text>
               <text systemLanguage="fr">essorage</text>
               <text systemLanguage="es">exprimir</text>
               <text systemLanguage="ja">絞り出</text>
               <text systemLanguage="pl">wyciskanie</text>
               <text systemLanguage="pt">compressão</text>
               <text systemLanguage="ru">выжимание</text>
               <text systemLanguage="uk">віджимання</text>
               <text systemLanguage="zh">擠出</text>
               <text>squeezing</text>
            </switch>
         </g>
      </g>
      <g fill="none" stroke="#000" stroke-linejoin="round" stroke-width="26">
         <path d="m4435 13871v1033"/>
         <path d="m4358 14026l77-155 74 155"/>
         <path d="m4509 14750l-74 154-77-154"/>
      </g>
      <g fill="none" stroke="#000" stroke-linejoin="round" stroke-width="26">
         <path d="m4435 14878v2516"/>
         <path d="m4358 15030l77-152 74 152"/>
         <path d="m4509 17242l-74 152-77-152"/>
      </g>
      <g font-family="DejaVu Sans" font-size="497" font-weight="400">
         <text>
            <tspan x="4073" y="14523">r</tspan>
         </text>
         <text>
            <tspan x="4078" y="16284">c</tspan>
         </text>
      </g>
      <path d="m14710 14376h542" fill="none" stroke="#000" stroke-linejoin="round" stroke-width="26"/>
      <path d="m15231 14451l229-75-229-77z"/>
      <path d="m14710 16138h542" fill="none" stroke="#000" stroke-linejoin="round" stroke-width="26"/>
      <path d="m15231 16212l229-74-229-78z"/>
      <path d="m15963 14376h290" fill="none" stroke="#000" stroke-linejoin="round" stroke-width="26"/>
      <path d="m16233 14451l231-75-231-77z"/>
      <path d="m15963 16138h290" fill="none" stroke="#000" stroke-linejoin="round" stroke-width="26"/>
      <path d="m16233 16212l231-74-231-78z"/>
      <path d="m8694 14374h290" fill="none" stroke="#000" stroke-linejoin="round" stroke-width="26"/>
      <path d="m8966 14451l229-77-229-75z"/>
      <path d="m8694 16135h290" fill="none" stroke="#000" stroke-linejoin="round" stroke-width="26"/>
      <path d="m8966 16212l229-77-229-75z"/>
      <g stroke="#000" stroke-linejoin="round" stroke-width="26">
         <path d="m9947 14250l-25 3-24 7-20 11-18 15-16 18-12 23-8 23-3 24 3 25 8 24 12 23 16 18 18 15 20 13 24 5 25 3 0 0 26-3 23-5 21-13 20-15 16-18 10-23 8-24 2-25-2-24-8-23-10-23-16-18-20-15-21-11-23-7z" fill="#fff"/>
         <path d="m9821 14374h252"/>
         <path d="m9947 14250v250"/>
      </g>
      <path d="m9695 14374h542" fill="none" stroke="#000" stroke-linejoin="round" stroke-width="26"/>
      <path d="m10220 14451l228-77-228-75z"/>
      <path d="m9695 16138h542" fill="none" stroke="#000" stroke-linejoin="round" stroke-width="26"/>
      <path d="m10220 16212l228-74-228-78z"/>
      <path d="m9947 13369v670" fill="none" stroke="#000" stroke-linejoin="round" stroke-width="26"/>
      <path d="m9870 14018l77 232 77-232z"/>
      <text font-family="DejaVu Sans" font-size="497" font-weight="400">
         <tspan x="9945" y="13140">P</tspan>
      </text>
      <text font-family="DejaVu Sans" font-size="332" font-weight="400">
         <tspan x="10194" y="13210">n−1</tspan>
      </text>
      <path d="m6189 13871l26 3 23 3 49 15 41 23 38 31 31 36 23 44 13 46 5 26v26l0 0v3018 26l-5 25-13 49-23 41-31 39-38 31-41 23-49 13-23 5h-26-26l-25-5-46-13-44-23-36-31-31-39-23-41-15-49-3-25-3-26v-3018l3-26 3-26 15-46 23-44 31-36 36-31 44-23 46-15 25-3z" fill="#d2e1f7" stroke="#000" stroke-linejoin="round" stroke-width="26"/>
      <path d="m8445 13871l25 3 23 3 49 15 41 23 39 31 31 36 23 44 13 46 5 26v26l0 0v3018 26l-5 25-13 49-23 41-31 39-39 31-41 23-49 13-23 5h-25-26l-26-5-46-13-44-23-36-31-31-39-23-41-15-49-3-25-2-26v-3018l2-26 3-26 15-46 23-44 31-36 36-31 44-23 46-15 26-3z" fill="#d2e1f7" stroke="#000" stroke-linejoin="round" stroke-width="26"/>
      <path d="m10700 13871l26 3 23 3 48 15 42 23 38 31 31 36 23 44 13 46 5 26v26l0 0v3018 26l-5 25-13 49-23 41-31 39-38 31-42 23-48 13-23 5h-26-26l-26-5-46-13-43-23-36-31-31-39-23-41-16-49-2-25-3-26v-3018l3-26 2-26 16-46 23-44 31-36 36-31 43-23 46-15 26-3z" fill="#d2e1f7" stroke="#000" stroke-linejoin="round" stroke-width="26"/>
      <path d="m13456 13871l26 3 25 3 47 15 41 23 38 31 31 36 23 44 13 46 5 26v26l0 0v3018 26l-5 25-13 49-23 41-31 39-38 31-41 23-47 13-25 5h-26-26l-25-5-47-13-43-23-36-31-31-39-23-41-15-49-3-25-3-26v-3018l3-26 3-26 15-46 23-44 31-36 36-31 43-23 47-15 25-3z" fill="#d2e1f7" stroke="#000" stroke-linejoin="round" stroke-width="26"/>
      <path d="m15711 13871l26 3 26 3 46 15 44 23 36 31 31 36 23 44 15 46 3 26 2 26 0 0v3020l0 0-2 26-3 23-15 49-23 41-31 39-36 31-44 23-46 13-26 5h-26-25l-26-5-46-13-44-23-36-31-31-39-23-41-15-49-3-23-2-26 0 0v-3020l0 0 2-26 3-26 15-46 23-44 31-36 36-31 44-23 46-15 26-3z" fill="#d2e1f7" stroke="#000" stroke-linejoin="round" stroke-width="26"/>
      <g font-family="DejaVu Sans" font-size="425" font-weight="400">
         <text>
            <tspan x="6084" y="15762">f</tspan>
         </text>
         <text>
            <tspan x="8339" y="15762">f</tspan>
         </text>
         <text>
            <tspan x="9233" y="15762">…</tspan>
         </text>
         <text>
            <tspan x="10595" y="15762">f</tspan>
         </text>
         <text>
            <tspan x="13351" y="15762">f</tspan>
         </text>
         <text>
            <tspan x="15606" y="15762">f</tspan>
         </text>
         <text>
            <tspan x="16500" y="15762">…</tspan>
         </text>
      </g>
      <path d="m11951 13871h503v1007h-503z" fill="#fff" stroke="#000" stroke-linejoin="round" stroke-width="26"/>
      <path d="m12454 14878v2516h-503v-2516z" fill="#fff" stroke="#000" stroke-linejoin="round" stroke-width="26"/>
      <path d="m14209 13871h501v1007h-501z" fill="#fff" stroke="#000" stroke-linejoin="round" stroke-width="26"/>
      <path d="m14710 14878v2516h-501v-2516z" fill="#fff" stroke="#000" stroke-linejoin="round" stroke-width="26"/>
   </g>
</svg>